# xmcd
#
# Track frame offsets: 
#        150
#        17513
#        29349
#        45468
#        59476
#        75615
#        95212
#        107782
#        115486
#        128269
#        145226
#        158876
#
# Disc length: 2267 seconds
#
# Revision: 0
# Processed by: cddbd v1.5.2PL0 Copyright (c) Steve Scherf et al.
# Submitted via: ExactAudioCopy v1.2
#
DISCID=9a08d90c
DTITLE=Morgan Davis - Home Away From Home
DYEAR=2017
DGENRE=Blues
TTITLE0=Home Away From Home
TTITLE1=Atlantic Time
TTITLE2=Riding Free
TTITLE3=A Pebble In Your Shoe
TTITLE4=Something New
TTITLE5=Inside Weather Report
TTITLE6=I Got The Touch
TTITLE7=Natural Medication
TTITLE8=Last Night I Gave Up Smoking
TTITLE9=I'll Take The Train
TTITLE10=Short Time Here Long Time Gone
TTITLE11=Home Away From Home (Inst.)
EXTD=
EXTT0=
EXTT1=
EXTT2=
EXTT3=
EXTT4=
EXTT5=
EXTT6=
EXTT7=
EXTT8=
EXTT9=
EXTT10=
EXTT11=
PLAYORDER=
